<svg width="64" height="24" viewBox="0 0 64 24" fill="none" xmlns="http://www.w3.org/2000/svg">
<path d="M18.7988 3.0499C17.7322 1.98335 16.003 1.98337 14.9364 3.04994L13.5234 4.46296L19.5368 10.4763L20.9499 9.06321C22.0165 7.99665 22.0164 6.26746 20.9499 5.20092L18.7988 3.0499Z" fill="#ACACBF"/>
<path d="M18.4764 11.5371L12.463 5.52368L4.35808 13.6287C3.66361 14.3232 3.20349 15.2173 3.04202 16.186L2.26021 20.8768C2.22039 21.1157 2.29841 21.3592 2.46968 21.5304C2.64095 21.7017 2.88439 21.7797 3.12331 21.7399L7.81417 20.9581C8.78294 20.7966 9.67706 20.3365 10.3715 19.6421L18.4764 11.5371Z" fill="#ACACBF"/>
<path d="M59.5825 15.6564C59.5058 16.9096 59.4449 17.9041 59.3202 18.6984C59.1922 19.5131 58.9874 20.1915 58.5777 20.7849C58.2029 21.3278 57.7204 21.786 57.1608 22.1303C56.5491 22.5067 55.8661 22.6713 55.0531 22.75L48.9274 22.7499C48.1135 22.671 47.4297 22.5061 46.8176 22.129C46.2576 21.7841 45.7749 21.3251 45.4003 20.7813C44.9907 20.1869 44.7866 19.5075 44.6596 18.6917C44.5357 17.8962 44.4762 16.9003 44.4012 15.6453L43.75 4.75H60.25L59.5825 15.6564Z" fill="#ACACBF"/>
<path fill-rule="evenodd" clip-rule="evenodd" d="M53.3473 1.28277C53.9124 1.33331 54.4435 1.50576 54.8996 1.84591C55.2369 2.09748 55.4712 2.40542 55.6714 2.73893C55.8569 3.04798 56.0437 3.4333 56.2555 3.8704L56.6823 4.7507H61C61.5523 4.7507 62 5.19842 62 5.7507C62 6.30299 61.5523 6.7507 61 6.7507C54.9998 6.7507 49.0002 6.7507 43 6.7507C42.4477 6.7507 42 6.30299 42 5.7507C42 5.19842 42.4477 4.7507 43 4.7507H47.4098L47.7656 3.97016C47.9721 3.51696 48.154 3.11782 48.3368 2.79754C48.5339 2.45207 48.7672 2.13237 49.1086 1.87046C49.5703 1.51626 50.1121 1.33669 50.6899 1.28409C51.1249 1.24449 51.5634 1.24994 52 1.25064C52.5108 1.25146 52.97 1.24902 53.3473 1.28277ZM49.6078 4.7507H54.4597C54.233 4.28331 54.088 3.98707 53.9566 3.7682C53.7643 3.44787 53.5339 3.30745 53.1691 3.27482C52.9098 3.25163 52.5719 3.2507 52.0345 3.2507C51.4837 3.2507 51.137 3.25166 50.8712 3.27585C50.4971 3.30991 50.2639 3.45568 50.0739 3.78866C49.9494 4.00687 49.8139 4.29897 49.6078 4.7507Z" fill="#ACACBF"/>
</svg>
