<svg width="36" height="36" viewBox="0 0 36 36" fill="none" xmlns="http://www.w3.org/2000/svg">
<rect width="36" height="36" rx="8" fill="#E6E6EB"/>
<path fill-rule="evenodd" clip-rule="evenodd" d="M11.3333 10.2919C11.7936 10.2919 12.1667 10.665 12.1667 11.1252V14.5405C12.1667 15.0007 11.7936 15.3738 11.3333 15.3738C10.8731 15.3738 10.5 15.0007 10.5 14.5405V11.1252C10.5 10.665 10.8731 10.2919 11.3333 10.2919Z" fill="#ACACBF"/>
<path fill-rule="evenodd" clip-rule="evenodd" d="M14.6667 22.5835C14.6667 22.1233 14.2936 21.7502 13.8333 21.7502C13.3731 21.7502 13 22.1233 13 22.5835V25.2087C13 25.4444 13 25.5622 12.9268 25.6354C12.8535 25.7087 12.7357 25.7087 12.5 25.7087H10.5C10.1548 25.7087 9.875 25.4289 9.875 25.0837V18.7384C9.875 18.5934 9.875 18.5209 9.91207 18.4751C9.94915 18.4293 10.031 18.4118 10.1945 18.3768C10.5804 18.2943 10.9422 18.0856 11.2132 17.7573L13.8148 14.6053C13.9239 14.4731 13.9785 14.407 14.0521 14.4035C14.1258 14.4 14.1864 14.4606 14.3076 14.5818L17.2393 17.5139C17.3327 17.6083 17.4708 17.7479 17.6498 17.8874C17.7218 17.9434 17.7578 17.9714 17.7747 18.006C17.7916 18.0407 17.7916 18.0828 17.7916 18.1669V25.0837C17.7916 25.4289 17.5119 25.7087 17.1666 25.7087H15.1667C14.931 25.7087 14.8131 25.7087 14.7399 25.6354C14.6667 25.5622 14.6667 25.4444 14.6667 25.2087V22.5835ZM14.6732 18.4169C14.6732 18.8771 14.3017 19.2502 13.8436 19.2502H13.8361C13.3779 19.2502 13.0065 18.8771 13.0065 18.4169C13.0065 17.9566 13.3779 17.5835 13.8361 17.5835H13.8436C14.3017 17.5835 14.6732 17.9566 14.6732 18.4169Z" fill="#ACACBF"/>
<path fill-rule="evenodd" clip-rule="evenodd" d="M18.8832 18.458C18.9335 18.409 19.0267 18.4113 19.2132 18.416C19.2922 18.4179 19.3622 18.4176 19.42 18.4173L25.7924 18.4169C25.9484 18.4169 26.0265 18.4169 26.0752 18.4657C26.1241 18.5144 26.1242 18.5921 26.1244 18.7475C26.1245 18.8332 26.1245 18.9207 26.1245 19.01V25.0836C26.1245 25.4288 25.8447 25.7086 25.4995 25.7086H19.2063C18.9977 25.7086 18.8935 25.7086 18.844 25.6546C18.7944 25.6005 18.8052 25.4768 18.8266 25.2294C18.8307 25.1814 18.8329 25.1328 18.8329 25.0836V18.7683C18.8329 18.5942 18.8329 18.5071 18.8832 18.458ZM22.9997 21.5419C23.3449 21.5419 23.6247 21.2621 23.6247 20.9169C23.6247 20.5718 23.3449 20.2919 22.9997 20.2919H21.333C20.9878 20.2919 20.708 20.5718 20.708 20.9169C20.708 21.2621 20.9878 21.5419 21.333 21.5419H22.9997Z" fill="#ACACBF"/>
<path d="M22.3584 11.3416C21.8936 11.1239 21.3748 11.1245 20.7197 11.1252L13.8337 11.1253C13.828 11.1253 13.8223 11.1254 13.8167 11.1255C13.7785 11.1265 13.7594 11.1271 13.7558 11.1271C13.7521 11.127 13.7379 11.1266 13.7094 11.1257C13.4796 11.1185 13.249 11.2143 13.0904 11.4065L9.22136 16.0939C8.94777 16.4254 8.99213 16.918 9.32044 17.1942C9.64875 17.4705 10.1367 17.4256 10.4103 17.0942L13.6248 13.1997C13.7884 13.0014 13.8703 12.9023 13.9807 12.897C14.0912 12.8917 14.1821 12.9826 14.3639 13.1645L17.9506 16.7513C18.142 16.9438 18.3486 17.1515 18.6208 17.2643C18.8931 17.3771 19.186 17.3762 19.4573 17.3754L26.3336 17.3753C26.5762 17.3753 26.7968 17.235 26.8996 17.0154C27.0026 16.7958 26.9691 16.5365 26.8138 16.3501L23.5737 12.462C23.1549 11.9583 22.8232 11.5593 22.3584 11.3416Z" fill="#ACACBF"/>
</svg>
