<svg width="36" height="36" viewBox="0 0 36 36" fill="none" xmlns="http://www.w3.org/2000/svg">
<rect width="36" height="36" rx="8" fill="#34E0A1"/>
<g clip-path="url(#clip0_3400_15017)">
<path d="M34 17.9999C34 26.8337 26.8338 33.9999 18 33.9999C9.1662 33.9999 2 26.8337 2 17.9999C2 9.16607 9.1662 1.99988 18 1.99988C26.8338 1.99988 34 9.16607 34 17.9999Z" fill="#34E0A1"/>
<path d="M27.8701 14.8446L29.8082 12.7263H25.5265C23.4082 11.2841 20.7941 10.4277 17.9997 10.4277C15.2053 10.4277 12.6363 11.2841 10.518 12.7263H6.23633L8.17436 14.8446C7.00253 15.9263 6.23633 17.4587 6.23633 19.2165C6.23633 22.4615 8.85041 25.1207 12.1406 25.1207C13.6729 25.1207 15.0701 24.5348 16.1518 23.5432L18.0448 25.6165L19.9377 23.5432C20.9744 24.5348 22.3715 25.1207 23.949 25.1207C27.1941 25.1207 29.8532 22.5066 29.8532 19.2165C29.7631 17.4587 29.042 15.9263 27.8701 14.8446ZM12.0955 23.1827C9.88703 23.1827 8.12929 21.3798 8.12929 19.2165C8.12929 17.008 9.9321 15.2503 12.0955 15.2503C14.3039 15.2503 16.0617 17.0531 16.0617 19.2165C16.1068 21.3798 14.3039 23.1827 12.0955 23.1827ZM17.9997 19.0813C17.9997 16.4672 16.1068 14.2136 13.5828 13.2672C14.9349 12.6813 16.4222 12.3658 17.9997 12.3658C19.5772 12.3658 21.0645 12.6813 22.4166 13.2672C19.8927 14.2136 17.9997 16.4672 17.9997 19.0813ZM23.9039 23.1827C21.6955 23.1827 19.9377 21.3798 19.9377 19.2165C19.9377 17.008 21.7406 15.2503 23.9039 15.2503C26.1124 15.2503 27.8701 17.0531 27.8701 19.2165C27.8701 21.3798 26.0673 23.1827 23.9039 23.1827ZM23.9039 17.0982C22.7321 17.0982 21.8307 18.0446 21.8307 19.1714C21.8307 20.2982 22.7772 21.2446 23.9039 21.2446C25.0758 21.2446 25.9772 20.2982 25.9772 19.1714C25.9772 18.0446 25.0307 17.0982 23.9039 17.0982ZM14.2138 19.1714C14.2138 20.3432 13.2673 21.2446 12.1406 21.2446C10.9687 21.2446 10.0673 20.2982 10.0673 19.1714C10.0673 18.0446 11.0138 17.0982 12.1406 17.0982C13.2673 17.0982 14.2138 18.0446 14.2138 19.1714Z" fill="black"/>
</g>
<defs>
<clipPath id="clip0_3400_15017">
<rect width="32" height="32" fill="white" transform="translate(2 1.99988)"/>
</clipPath>
</defs>
</svg>
